<mxfile host="Electron" modified="2024-05-23T13:08:13.590Z" agent="Mozilla/5.0 (Windows NT 10.0; Win64; x64) AppleWebKit/537.36 (KHTML, like Gecko) draw.io/24.4.6 Chrome/124.0.6367.207 Electron/30.0.6 Safari/537.36" etag="Kwzan1P7AGSDLGnWKKj5" version="24.4.6" type="device">
  <diagram name="Seite-1" id="9gljBTgNpnOZX4wnUa-b">
    <mxGraphModel dx="5070" dy="2049" grid="1" gridSize="10" guides="1" tooltips="1" connect="1" arrows="1" fold="1" page="1" pageScale="1" pageWidth="827" pageHeight="1169" math="0" shadow="0">
      <root>
        <mxCell id="0" />
        <mxCell id="1" parent="0" />
        <mxCell id="2LmcFFchuBvGsKRj16lM-1" value="Airplane" style="html=1;whiteSpace=wrap;" vertex="1" parent="1">
          <mxGeometry x="265" y="80" width="110" height="50" as="geometry" />
        </mxCell>
        <mxCell id="2LmcFFchuBvGsKRj16lM-2" value="Configuration" style="html=1;whiteSpace=wrap;" vertex="1" parent="1">
          <mxGeometry x="-120" y="-200" width="110" height="50" as="geometry" />
        </mxCell>
        <mxCell id="2LmcFFchuBvGsKRj16lM-3" value="Application" style="html=1;whiteSpace=wrap;" vertex="1" parent="1">
          <mxGeometry x="-310" y="-200" width="110" height="50" as="geometry" />
        </mxCell>
        <mxCell id="2LmcFFchuBvGsKRj16lM-4" value="Body" style="html=1;whiteSpace=wrap;" vertex="1" parent="1">
          <mxGeometry x="-150" y="240" width="110" height="50" as="geometry" />
        </mxCell>
        <mxCell id="2LmcFFchuBvGsKRj16lM-5" value="Wing" style="html=1;whiteSpace=wrap;" vertex="1" parent="1">
          <mxGeometry x="870" y="240" width="110" height="50" as="geometry" />
        </mxCell>
        <mxCell id="2LmcFFchuBvGsKRj16lM-6" value="Cabin" style="html=1;whiteSpace=wrap;" vertex="1" parent="1">
          <mxGeometry x="-150" y="460" width="110" height="50" as="geometry" />
        </mxCell>
        <mxCell id="2LmcFFchuBvGsKRj16lM-7" value="Business Class" style="html=1;whiteSpace=wrap;" vertex="1" parent="1">
          <mxGeometry x="-310" y="560" width="110" height="50" as="geometry" />
        </mxCell>
        <mxCell id="2LmcFFchuBvGsKRj16lM-8" value="Premium Economy" style="html=1;whiteSpace=wrap;" vertex="1" parent="1">
          <mxGeometry x="-150" y="560" width="110" height="50" as="geometry" />
        </mxCell>
        <mxCell id="2LmcFFchuBvGsKRj16lM-9" value="&amp;nbsp;Economy" style="html=1;whiteSpace=wrap;" vertex="1" parent="1">
          <mxGeometry y="560" width="110" height="50" as="geometry" />
        </mxCell>
        <mxCell id="2LmcFFchuBvGsKRj16lM-10" value="Seats" style="html=1;whiteSpace=wrap;" vertex="1" parent="1">
          <mxGeometry x="-150" y="680" width="110" height="50" as="geometry" />
        </mxCell>
        <mxCell id="2LmcFFchuBvGsKRj16lM-11" value="JetEngine" style="html=1;whiteSpace=wrap;" vertex="1" parent="1">
          <mxGeometry x="870" y="440" width="110" height="50" as="geometry" />
        </mxCell>
        <mxCell id="2LmcFFchuBvGsKRj16lM-12" value="Fan" style="html=1;whiteSpace=wrap;" vertex="1" parent="1">
          <mxGeometry x="440" y="560" width="110" height="50" as="geometry" />
        </mxCell>
        <mxCell id="2LmcFFchuBvGsKRj16lM-13" value="LowPressureCompressor" style="html=1;whiteSpace=wrap;" vertex="1" parent="1">
          <mxGeometry x="590" y="560" width="140" height="50" as="geometry" />
        </mxCell>
        <mxCell id="2LmcFFchuBvGsKRj16lM-14" value="HighPressureCompressor" style="html=1;whiteSpace=wrap;" vertex="1" parent="1">
          <mxGeometry x="770" y="560" width="140" height="50" as="geometry" />
        </mxCell>
        <mxCell id="2LmcFFchuBvGsKRj16lM-15" value="HighPressureTurbine" style="html=1;whiteSpace=wrap;" vertex="1" parent="1">
          <mxGeometry x="960" y="560" width="140" height="50" as="geometry" />
        </mxCell>
        <mxCell id="2LmcFFchuBvGsKRj16lM-16" value="CombustionChamber" style="html=1;whiteSpace=wrap;" vertex="1" parent="1">
          <mxGeometry x="1150" y="560" width="140" height="50" as="geometry" />
        </mxCell>
        <mxCell id="2LmcFFchuBvGsKRj16lM-17" value="Unit" style="html=1;whiteSpace=wrap;" vertex="1" parent="1">
          <mxGeometry x="1350" y="560" width="110" height="50" as="geometry" />
        </mxCell>
        <mxCell id="2LmcFFchuBvGsKRj16lM-18" value="LowPressureShaft" style="html=1;whiteSpace=wrap;" vertex="1" parent="1">
          <mxGeometry x="770" y="680" width="140" height="50" as="geometry" />
        </mxCell>
        <mxCell id="2LmcFFchuBvGsKRj16lM-19" value="HighPressureShaft" style="html=1;whiteSpace=wrap;" vertex="1" parent="1">
          <mxGeometry x="970" y="680" width="140" height="50" as="geometry" />
        </mxCell>
        <mxCell id="2LmcFFchuBvGsKRj16lM-20" value="LowPressureTurbine" style="html=1;whiteSpace=wrap;" vertex="1" parent="1">
          <mxGeometry x="250" y="560" width="140" height="50" as="geometry" />
        </mxCell>
        <mxCell id="2LmcFFchuBvGsKRj16lM-21" value="CargoArea" style="html=1;whiteSpace=wrap;" vertex="1" parent="1">
          <mxGeometry x="-150" y="360" width="110" height="50" as="geometry" />
        </mxCell>
        <mxCell id="2LmcFFchuBvGsKRj16lM-22" value="CheckIn" style="html=1;whiteSpace=wrap;" vertex="1" parent="1">
          <mxGeometry x="-1600" y="90" width="110" height="50" as="geometry" />
        </mxCell>
        <mxCell id="2LmcFFchuBvGsKRj16lM-23" value="Airport" style="html=1;whiteSpace=wrap;" vertex="1" parent="1">
          <mxGeometry x="-1600" y="-110" width="110" height="50" as="geometry" />
        </mxCell>
        <mxCell id="2LmcFFchuBvGsKRj16lM-24" value="FuelTank" style="html=1;whiteSpace=wrap;" vertex="1" parent="1">
          <mxGeometry x="1080" y="240" width="110" height="50" as="geometry" />
        </mxCell>
        <mxCell id="2LmcFFchuBvGsKRj16lM-25" value="FuelManagement" style="html=1;whiteSpace=wrap;" vertex="1" parent="1">
          <mxGeometry x="960" y="340" width="110" height="50" as="geometry" />
        </mxCell>
        <mxCell id="2LmcFFchuBvGsKRj16lM-26" value="JetEngineMediator" style="html=1;whiteSpace=wrap;" vertex="1" parent="1">
          <mxGeometry x="770" y="340" width="110" height="50" as="geometry" />
        </mxCell>
        <mxCell id="2LmcFFchuBvGsKRj16lM-27" value="Human" style="html=1;whiteSpace=wrap;" vertex="1" parent="1">
          <mxGeometry x="-2400" y="90" width="110" height="50" as="geometry" />
        </mxCell>
        <mxCell id="2LmcFFchuBvGsKRj16lM-28" value="Head" style="html=1;whiteSpace=wrap;" vertex="1" parent="1">
          <mxGeometry x="-2658" y="200" width="110" height="50" as="geometry" />
        </mxCell>
        <mxCell id="2LmcFFchuBvGsKRj16lM-29" value="Body" style="html=1;whiteSpace=wrap;" vertex="1" parent="1">
          <mxGeometry x="-2498" y="200" width="110" height="50" as="geometry" />
        </mxCell>
        <mxCell id="2LmcFFchuBvGsKRj16lM-30" value="Arm" style="html=1;whiteSpace=wrap;" vertex="1" parent="1">
          <mxGeometry x="-2328" y="200" width="110" height="50" as="geometry" />
        </mxCell>
        <mxCell id="2LmcFFchuBvGsKRj16lM-31" value="Leg" style="html=1;whiteSpace=wrap;" vertex="1" parent="1">
          <mxGeometry x="-2178" y="200" width="110" height="50" as="geometry" />
        </mxCell>
        <mxCell id="2LmcFFchuBvGsKRj16lM-32" value="Hand" style="html=1;whiteSpace=wrap;" vertex="1" parent="1">
          <mxGeometry x="-2328" y="300" width="110" height="50" as="geometry" />
        </mxCell>
        <mxCell id="2LmcFFchuBvGsKRj16lM-34" value="Foot" style="html=1;whiteSpace=wrap;" vertex="1" parent="1">
          <mxGeometry x="-2178" y="300" width="110" height="50" as="geometry" />
        </mxCell>
        <mxCell id="2LmcFFchuBvGsKRj16lM-35" value="Baggage" style="html=1;whiteSpace=wrap;" vertex="1" parent="1">
          <mxGeometry x="-1860" y="90" width="110" height="50" as="geometry" />
        </mxCell>
        <mxCell id="2LmcFFchuBvGsKRj16lM-36" value="Boarding" style="html=1;whiteSpace=wrap;" vertex="1" parent="1">
          <mxGeometry x="-1400" y="660" width="110" height="50" as="geometry" />
        </mxCell>
        <mxCell id="2LmcFFchuBvGsKRj16lM-37" value="Container" style="html=1;whiteSpace=wrap;" vertex="1" parent="1">
          <mxGeometry x="-990" y="470" width="110" height="50" as="geometry" />
        </mxCell>
        <mxCell id="2LmcFFchuBvGsKRj16lM-38" value="CheckInDesk" style="html=1;whiteSpace=wrap;" vertex="1" parent="1">
          <mxGeometry x="-1775" y="200" width="110" height="50" as="geometry" />
        </mxCell>
        <mxCell id="2LmcFFchuBvGsKRj16lM-39" value="Reader" style="html=1;whiteSpace=wrap;" vertex="1" parent="1">
          <mxGeometry x="-1775" y="290" width="110" height="50" as="geometry" />
        </mxCell>
        <mxCell id="2LmcFFchuBvGsKRj16lM-40" value="Iris" style="html=1;whiteSpace=wrap;" vertex="1" parent="1">
          <mxGeometry x="-1775" y="380" width="110" height="50" as="geometry" />
        </mxCell>
        <mxCell id="2LmcFFchuBvGsKRj16lM-41" value="Fingerprint" style="html=1;whiteSpace=wrap;" vertex="1" parent="1">
          <mxGeometry x="-1620" y="380" width="110" height="50" as="geometry" />
        </mxCell>
        <mxCell id="2LmcFFchuBvGsKRj16lM-42" value="ConveyorBelt" style="html=1;whiteSpace=wrap;" vertex="1" parent="1">
          <mxGeometry x="-1175" y="380" width="110" height="50" as="geometry" />
        </mxCell>
        <mxCell id="2LmcFFchuBvGsKRj16lM-43" value="Printer" style="html=1;whiteSpace=wrap;" vertex="1" parent="1">
          <mxGeometry x="-1400" y="370" width="110" height="50" as="geometry" />
        </mxCell>
        <mxCell id="2LmcFFchuBvGsKRj16lM-44" value="Passport" style="html=1;whiteSpace=wrap;" vertex="1" parent="1">
          <mxGeometry x="-1930" y="380" width="110" height="50" as="geometry" />
        </mxCell>
        <mxCell id="2LmcFFchuBvGsKRj16lM-45" value="FederalPolice" style="html=1;whiteSpace=wrap;" vertex="1" parent="1">
          <mxGeometry x="-890" y="80" width="110" height="50" as="geometry" />
        </mxCell>
        <mxCell id="2LmcFFchuBvGsKRj16lM-46" value="FederalPoliceOfficer" style="html=1;whiteSpace=wrap;" vertex="1" parent="1">
          <mxGeometry x="-750" y="80" width="110" height="50" as="geometry" />
        </mxCell>
        <mxCell id="2LmcFFchuBvGsKRj16lM-47" value="Prison" style="html=1;whiteSpace=wrap;" vertex="1" parent="1">
          <mxGeometry x="-810" y="190" width="110" height="50" as="geometry" />
        </mxCell>
        <mxCell id="2LmcFFchuBvGsKRj16lM-48" value="WaitingArea" style="html=1;whiteSpace=wrap;" vertex="1" parent="1">
          <mxGeometry x="-1400" y="580" width="110" height="50" as="geometry" />
        </mxCell>
        <mxCell id="2LmcFFchuBvGsKRj16lM-49" value="Weigh" style="html=1;whiteSpace=wrap;" vertex="1" parent="1">
          <mxGeometry x="-1175" y="290" width="110" height="50" as="geometry" />
        </mxCell>
        <mxCell id="2LmcFFchuBvGsKRj16lM-50" value="RobotArm" style="html=1;whiteSpace=wrap;" vertex="1" parent="1">
          <mxGeometry x="-1177.5" y="470" width="110" height="50" as="geometry" />
        </mxCell>
        <mxCell id="2LmcFFchuBvGsKRj16lM-51" value="AirportBaggageStorage" style="html=1;whiteSpace=wrap;" vertex="1" parent="1">
          <mxGeometry x="-1190" y="550" width="135" height="50" as="geometry" />
        </mxCell>
        <mxCell id="2LmcFFchuBvGsKRj16lM-52" value="Ticket" style="html=1;whiteSpace=wrap;" vertex="1" parent="1">
          <mxGeometry x="-1400" y="90" width="110" height="50" as="geometry" />
        </mxCell>
        <mxCell id="2LmcFFchuBvGsKRj16lM-53" value="BoardingPass" style="html=1;whiteSpace=wrap;" vertex="1" parent="1">
          <mxGeometry x="-1400" y="480" width="110" height="50" as="geometry" />
        </mxCell>
        <mxCell id="2LmcFFchuBvGsKRj16lM-54" value="Reports" style="html=1;whiteSpace=wrap;" vertex="1" parent="1">
          <mxGeometry x="-1400" y="750" width="110" height="50" as="geometry" />
        </mxCell>
        <mxCell id="2LmcFFchuBvGsKRj16lM-55" value="AirportContainerStorage" style="html=1;whiteSpace=wrap;" vertex="1" parent="1">
          <mxGeometry x="-1000" y="550" width="140" height="50" as="geometry" />
        </mxCell>
        <mxCell id="2LmcFFchuBvGsKRj16lM-56" value="AutonomicVehicle" style="html=1;whiteSpace=wrap;" vertex="1" parent="1">
          <mxGeometry x="-480" y="190" width="110" height="50" as="geometry" />
        </mxCell>
        <mxCell id="2LmcFFchuBvGsKRj16lM-57" value="OrganisationUnit" style="html=1;whiteSpace=wrap;" vertex="1" parent="1">
          <mxGeometry x="-480" y="80" width="110" height="50" as="geometry" />
        </mxCell>
        <mxCell id="2LmcFFchuBvGsKRj16lM-59" value="Lifter" style="html=1;whiteSpace=wrap;" vertex="1" parent="1">
          <mxGeometry x="-480" y="360" width="110" height="50" as="geometry" />
        </mxCell>
        <mxCell id="2LmcFFchuBvGsKRj16lM-60" value="Passanger" style="html=1;whiteSpace=wrap;" vertex="1" parent="1">
          <mxGeometry x="-2040" y="90" width="110" height="50" as="geometry" />
        </mxCell>
      </root>
    </mxGraphModel>
  </diagram>
</mxfile>
